<?xml version="1.0" encoding="UTF-8" standalone="no"?><!DOCTYPE svg PUBLIC "-//W3C//DTD SVG 1.1//EN" "http://www.w3.org/Graphics/SVG/1.1/DTD/svg11.dtd"><svg width="100%" height="100%" viewBox="0 0 1757 1920" version="1.1" xmlns="http://www.w3.org/2000/svg" xmlns:xlink="http://www.w3.org/1999/xlink" xml:space="preserve" xmlns:serif="http://www.serif.com/" style="fill-rule:evenodd;clip-rule:evenodd;stroke-linecap:round;stroke-linejoin:round;stroke-miterlimit:2;"><g><clipPath id="_clip1"><path d="M878.071,0c484.621,0 878.071,393.45 878.071,878.071c-0,484.621 -393.45,878.071 -878.071,878.071c-484.621,-0 -878.071,-393.45 -878.071,-878.071c-0,-484.621 393.45,-878.071 878.071,-878.071Z" clip-rule="nonzero"/></clipPath><g clip-path="url(#_clip1)"><path d="M878.071,0c484.621,0 878.071,393.45 878.071,878.071c-0,484.621 -393.45,878.071 -878.071,878.071c-484.621,-0 -878.071,-393.45 -878.071,-878.071c-0,-484.621 393.45,-878.071 878.071,-878.071Z" style="fill:#a7a7a7;fill-rule:nonzero;"/><g id="karla"><g id="body"><g><rect x="801.588" y="1269.31" width="174.488" height="310.404" style="fill:#fff;"/><rect x="801.588" y="1269.31" width="174.488" height="310.404" style="fill:none;stroke:#000;stroke-width:11.43px;"/></g><g><path d="M976.077,1441.46c4.593,1.287 420.891,86.919 423.995,89.421c3.104,2.501 107.581,173.109 107.581,173.109c-0,0 -240.278,211.432 -627.388,203.012c-401.41,-8.729 -632.096,-202.655 -632.096,-202.655l116.955,-177.554l436.464,-85.333" style="fill:#fff;"/><path d="M1396.56,1535.9c-2.019,-0.516 -5.552,-1.335 -10.391,-2.415c-20.392,-4.555 -63.466,-13.63 -114.382,-24.219c-124.069,-25.8 -294.566,-60.627 -297.502,-61.442c-3.513,-0.988 -5.566,-4.636 -4.578,-8.15c0.983,-3.518 4.636,-5.572 8.15,-4.584c3.272,0.921 216.237,45.205 338.812,71.342c35.285,7.523 63.099,13.543 76.32,16.609c3.918,0.911 6.608,1.576 7.89,1.947c1.716,0.501 2.593,1.147 2.848,1.349c0.338,0.275 1.682,1.803 3.557,4.637c3.543,5.359 10.69,16.72 19.669,31.164c31.425,50.545 85.377,138.982 85.377,138.982c1.398,2.275 0.95,5.224 -1.051,6.988c0,0 -108.916,95.638 -298.23,155.899c-92.755,29.53 -204.838,50.597 -332.888,47.681c-129.376,-2.8 -241.063,-24.831 -333.134,-53.311c-195.097,-60.347 -302.187,-150.076 -302.187,-150.076c-2.01,-1.692 -2.434,-4.612 -0.993,-6.801l116.623,-177.775c0.824,-1.248 2.116,-2.111 3.581,-2.4l436.267,-86.36c3.581,-0.699 7.06,1.639 7.759,5.22c0.699,3.586 -1.638,7.061 -5.219,7.76l-434.382,83.868l-113.408,171.461c19.924,15.77 119.77,101.571 291.959,155.103c91.314,28.389 204.997,58.048 333.365,60.848c126.836,2.632 244.547,-26.935 336.353,-56.402c167.124,-53.639 271.009,-129.204 290.905,-145.717c-8.377,-13.616 -43.768,-73.77 -68.922,-114.289c-16.464,-26.518 -31.598,-50.733 -38.948,-62.049c-1.374,-2.126 -2.463,-3.769 -3.22,-4.868Z"/></g><g><path d="M711.031,1460.99c-0,-0 37.299,74.691 176.599,72.059c139.304,-2.626 179.327,-69.379 179.327,-69.379l123.37,24.06c0,-0 -41.184,168.873 -26.657,224.468c13.649,52.246 117.49,120.595 117.49,120.595c-19.665,8.164 -100.911,37.579 -181.477,53.715c-73.669,14.758 -115.5,22.822 -216.135,20.561c-102.289,-2.299 -182.089,-15.924 -244.514,-30.229c-75.019,-17.192 -160.728,-47.436 -160.728,-47.436c-0,0 97.102,-61.851 114.95,-117.206c17.842,-55.349 -9.341,-225.765 -9.341,-225.765l127.116,-25.443Z" style="fill:#0d0000;"/><path d="M716.944,1458.03c-1.335,-2.67 -4.289,-4.116 -7.215,-3.528l-127.038,25.815c-3.282,0.655 -5.456,3.788 -4.931,7.089c0,0 11.375,70.07 14.811,134.765c1.88,35.29 1.504,68.96 -4.67,88.297c-5.634,17.606 -19.703,35.83 -35.868,52.453c-33.623,34.577 -76.547,62.049 -76.547,62.049c-1.696,1.08 -2.622,3.032 -2.395,5.022c0.226,1.996 1.576,3.687 3.465,4.352c0,0 35.092,12.31 80.065,25.661c25.463,7.557 54.087,15.452 81.314,21.64c34.947,7.957 75.317,15.683 121.992,21.361c37.049,4.511 78.069,7.741 123.515,8.729c45.705,1.017 79.337,-0.092 109.311,-2.96c36.336,-3.48 67.293,-9.552 107.855,-17.659c31.926,-6.367 63.963,-14.806 92.269,-23.193c43.493,-12.888 78.186,-25.655 90.163,-30.61c1.672,-0.694 2.829,-2.26 2.997,-4.063c0.174,-1.807 -0.669,-3.557 -2.183,-4.554c0,-0 -44.356,-29.285 -78.576,-64.05c-17.327,-17.606 -32.152,-36.538 -36.62,-53.754c-5.065,-19.51 -2.95,-53.248 1.653,-88.509c8.387,-64.204 25.39,-133.347 25.39,-133.347c0.357,-1.47 0.102,-3.022 -0.718,-4.295c-0.814,-1.277 -2.115,-2.159 -3.6,-2.448l-123.317,-24.301c-2.386,-0.463 -4.81,0.617 -6.064,2.699c0,-0 -15.48,25.212 -60.342,44.491c-26.813,11.519 -63.91,20.84 -114.146,21.684c-40.076,0.669 -71.505,-5.148 -95.903,-13.751c-56.848,-20.04 -74.667,-55.085 -74.667,-55.085Zm-9.205,10.343l-116.777,23.015c2.704,18.348 10.748,76.142 13.331,130.195c1.764,36.933 0.887,72.141 -5.687,92.336c-6.169,18.985 -21.202,38.774 -38.741,56.646c-25.106,25.583 -55.195,47.32 -69.852,57.34c13.442,4.603 39.223,13.23 69.524,22.349c25.236,7.596 53.61,15.534 80.6,21.771c34.644,7.991 74.663,15.794 120.951,21.525c36.755,4.554 77.468,7.798 122.566,8.849c45.242,1.022 78.542,-0.044 108.212,-2.892c36.018,-3.456 66.695,-9.538 106.897,-17.611c31.622,-6.367 63.355,-14.787 91.381,-23.159c35.261,-10.526 64.667,-20.961 80.634,-27.097c-14.425,-10.053 -46.452,-33.4 -72.691,-59.894c-18.792,-18.98 -34.519,-39.647 -39.406,-58.251c-5.354,-20.359 -3.557,-55.615 1.133,-92.467c6.849,-53.817 19.659,-111.094 23.804,-128.961l-114.053,-22.016c-6.044,8.131 -24.484,29.202 -63.201,46.023c-27.839,12.098 -66.363,22.055 -118.618,23.149c-53.157,1.118 -91.821,-8.878 -119.428,-21.751c-36.895,-17.202 -54.463,-39.69 -60.579,-49.099Z"/></g></g><g id="right-ear" serif:id="right ear"><path d="M1333.57,736.401c34.625,7.422 56.289,43.508 48.351,80.537c-7.938,37.025 -42.491,61.061 -77.11,53.639c-34.625,-7.418 -56.29,-43.508 -48.352,-80.533c7.938,-37.03 42.491,-61.065 77.111,-53.643Z" style="fill:#fff;"/><path d="M1333.57,736.401c34.625,7.422 56.289,43.508 48.351,80.537c-7.938,37.025 -42.491,61.061 -77.11,53.639c-34.625,-7.418 -56.29,-43.508 -48.352,-80.533c7.938,-37.03 42.491,-61.065 77.111,-53.643Z" style="fill:none;stroke:#000;stroke-width:11.43px;"/></g><g id="left-ear" serif:id="left ear"><path d="M432.918,736.401c-34.625,7.422 -56.289,43.508 -48.351,80.537c7.938,37.025 42.49,61.061 77.111,53.639c34.624,-7.418 56.289,-43.508 48.351,-80.533c-7.938,-37.03 -42.491,-61.065 -77.111,-53.643Z" style="fill:#fff;"/><path d="M432.918,736.401c-34.625,7.422 -56.289,43.508 -48.351,80.537c7.938,37.025 42.49,61.061 77.111,53.639c34.624,-7.418 56.289,-43.508 48.351,-80.533c-7.938,-37.03 -42.491,-61.065 -77.111,-53.643Z" style="fill:none;stroke:#000;stroke-width:11.43px;"/></g><g id="face"><path d="M888.83,146.4c243.69,-0 441.534,265.504 441.534,592.526c0,327.023 -197.844,592.527 -441.534,592.527c-243.685,0 -441.53,-265.504 -441.53,-592.527c0,-327.022 197.845,-592.526 441.53,-592.526Z" style="fill:#fff;"/><path d="M888.83,146.4c243.69,-0 441.534,265.504 441.534,592.526c0,327.023 -197.844,592.527 -441.534,592.527c-243.685,0 -441.53,-265.504 -441.53,-592.527c0,-327.022 197.845,-592.526 441.53,-592.526Z" style="fill:none;stroke:#000;stroke-width:11.79px;"/></g><g id="hair"><path d="M890.377,102.367c151.026,-0 314.299,72.522 383.004,184.142c34.919,56.738 48.92,119.24 56.983,187.94c11.399,97.06 6.555,250.524 0,301.29c-3.711,28.76 -17.596,-65.895 -27.202,-112.612c-10.227,-49.745 -24.166,-85.758 -48.347,-137.55c-38.615,-82.721 -102.424,-106.921 -140.798,-93.296c-97.431,34.601 -143.782,54.598 -225.057,53.986c-70.05,-0.525 -148.12,-22.918 -258.39,-55.528c-38.591,-11.413 -82.933,19.592 -113.818,100.621c-13.341,35.001 -33.844,76.46 -42.37,110.738c-23.298,93.647 -21.202,163.22 -27.082,126.065c-8.135,-51.402 -15.934,-199.43 0,-293.748c11.201,-66.304 29.516,-126.922 63.418,-180.108c71.722,-112.521 226.185,-191.94 379.659,-191.94Z" style="fill:#eaeaea;stroke:#080000;stroke-width:4.17px;stroke-linecap:butt;"/><path d="M890.377,102.367c151.026,-0 314.299,72.522 383.004,184.142c34.919,56.738 48.92,119.24 56.983,187.94c11.399,97.06 6.555,250.524 0,301.29c-3.711,28.76 -12.373,-51.351 -27.202,-112.612c-11.948,-49.36 -24.166,-85.758 -48.347,-137.55c-38.615,-82.721 -102.424,-106.921 -140.798,-93.296c-97.431,34.601 -143.782,54.598 -225.057,53.986c-70.05,-0.525 -148.12,-22.918 -258.39,-55.528c-38.591,-11.413 -72.521,24.371 -113.818,100.621c-17.628,32.551 -36.146,74.347 -47.165,111.885c-27.181,92.595 -16.407,162.073 -22.287,124.918c-8.135,-51.402 -15.934,-199.43 0,-293.748c11.201,-66.304 29.516,-126.922 63.418,-180.108c71.722,-112.521 226.185,-191.94 379.659,-191.94Z" style="fill:#1e1e1e;stroke:#1f1e1e;stroke-width:11.43px;"/></g><g id="eyebrows"><g><path d="M991.013,701.087c10.868,-7.543 154.66,-31.863 154.66,-31.863l47.561,-7.418l62.324,38.558l-64.946,-23.959c-0,0 -134.012,37.854 -179.838,52.063c-10.748,3.335 -29.391,-20.696 -19.761,-27.381Z"/><path d="M991.013,701.087c10.868,-7.543 154.66,-31.863 154.66,-31.863l47.561,-7.418l62.324,38.558l-64.946,-23.959c-0,0 -134.012,37.854 -179.838,52.063c-10.748,3.335 -29.391,-20.696 -19.761,-27.381Z" style="fill:none;stroke:#000;stroke-width:4.17px;"/></g><g><path d="M783.64,701.429c-10.869,-7.543 -154.66,-31.863 -154.66,-31.863l-47.561,-7.418l-62.324,38.558l64.946,-23.959c-0,0 134.012,37.854 179.838,52.063c10.748,3.335 29.395,-20.696 19.761,-27.381Z"/><path d="M783.64,701.429c-10.869,-7.543 -154.66,-31.863 -154.66,-31.863l-47.561,-7.418l-62.324,38.558l64.946,-23.959c-0,0 134.012,37.854 179.838,52.063c10.748,3.335 29.395,-20.696 19.761,-27.381Z" style="fill:none;stroke:#000;stroke-width:4.17px;"/></g></g><g id="eyes"><g><path d="M981.537,827.788c0,-0 46.255,-44.289 92.279,-49.769c46.023,-5.48 90.365,0.926 125.833,34.861c6.728,6.439 18.58,-5.142 35.285,-18.185c10.627,-8.299 35.892,-31.607 27.082,-25.4c-9.374,6.608 -52.834,26.605 -84.861,12.329c-84.596,-37.704 -156.525,-4.8 -195.618,46.164Z"/><path d="M981.537,827.788c0,-0 46.255,-44.289 92.279,-49.769c46.023,-5.48 90.365,0.926 125.833,34.861c6.728,6.439 18.58,-5.142 35.285,-18.185c10.627,-8.299 35.892,-31.607 27.082,-25.4c-9.374,6.608 -52.834,26.605 -84.861,12.329c-84.596,-37.704 -156.525,-4.8 -195.618,46.164Z" style="fill:none;stroke:#000;stroke-width:4.17px;"/></g><g><path d="M799.217,824.949c-0,-0 -46.255,-44.289 -92.278,-49.769c-46.024,-5.48 -90.365,0.926 -125.834,34.861c-6.733,6.44 -18.58,-5.142 -35.285,-18.184c-10.627,-8.3 -35.892,-31.608 -27.082,-25.4c9.375,6.607 52.834,26.604 84.861,12.329c84.596,-37.705 156.525,-4.801 195.618,46.163Z"/><path d="M799.217,824.949c-0,-0 -46.255,-44.289 -92.278,-49.769c-46.024,-5.48 -90.365,0.926 -125.834,34.861c-6.733,6.44 -18.58,-5.142 -35.285,-18.184c-10.627,-8.3 -35.892,-31.608 -27.082,-25.4c9.375,6.607 52.834,26.604 84.861,12.329c84.596,-37.705 156.525,-4.801 195.618,46.163Z" style="fill:none;stroke:#000;stroke-width:4.17px;"/></g><path d="M1096.95,782.212c32.124,0 58.203,24.615 58.203,54.931c0,30.321 -26.079,54.935 -58.203,54.935c-32.123,-0 -58.203,-24.614 -58.203,-54.935c0,-30.316 26.08,-54.931 58.203,-54.931Z"/><path d="M683.804,779.373c-32.123,0 -58.203,24.615 -58.203,54.931c-0,30.321 26.08,54.935 58.203,54.935c32.123,0 58.203,-24.614 58.203,-54.935c-0,-30.316 -26.08,-54.931 -58.203,-54.931Z"/></g><g id="noes"><path d="M846.662,983.595c0,16.097 18.898,29.164 42.168,29.164c23.274,-0 42.173,-13.067 42.173,-29.164c-0,16.097 -18.899,29.164 -42.173,29.164c-23.27,-0 -42.168,-13.067 -42.168,-29.164Z" style="fill:#f7f7f7;"/><path d="M846.662,983.595c0,16.097 18.898,29.164 42.168,29.164c23.274,-0 42.173,-13.067 42.173,-29.164c-0,16.097 -18.899,29.164 -42.173,29.164c-23.27,-0 -42.168,-13.067 -42.168,-29.164Z" style="fill:none;stroke:#000;stroke-width:8.89px;"/></g><g id="nose-ring" serif:id="nose ring"><path d="M853.236,998.179c0,31.598 15.949,57.254 35.594,57.254c19.65,-0 35.598,-25.656 35.598,-57.254c-5.933,15.799 -19.838,28.624 -35.598,28.624c-15.756,0 -29.661,-12.825 -35.594,-28.624Z" style="fill:#939393;"/><path d="M853.236,998.179c0,31.598 15.949,57.254 35.594,57.254c19.65,-0 35.598,-25.656 35.598,-57.254c-5.933,15.799 -19.838,28.624 -35.598,28.624c-15.756,0 -29.661,-12.825 -35.594,-28.624Z" style="fill:none;stroke:#000;stroke-width:5.08px;"/></g><g id="mouth"><path d="M801.039,1127.47c-0,6.044 39.338,51.793 87.791,51.793c48.457,-0 87.796,-45.749 87.796,-51.793c0,-6.044 -58.531,15.539 -87.796,15.539c-29.261,-0 -87.791,-21.583 -87.791,-15.539Z"/><path d="M801.039,1127.47c-0,6.044 39.338,51.793 87.791,51.793c48.457,-0 87.796,-45.749 87.796,-51.793c0,-6.044 -58.531,15.539 -87.796,15.539c-29.261,-0 -87.791,-21.583 -87.791,-15.539Z" style="fill:none;stroke:#000;stroke-width:8.89px;"/></g></g></g></g></svg>