<?xml version="1.0" encoding="UTF-8" standalone="no"?>
<!DOCTYPE svg PUBLIC "-//W3C//DTD SVG 1.1//EN" "http://www.w3.org/Graphics/SVG/1.1/DTD/svg11.dtd">
<svg width="100%" height="100%" viewBox="0 0 423 424" version="1.1" xmlns="http://www.w3.org/2000/svg" xmlns:xlink="http://www.w3.org/1999/xlink" xml:space="preserve" xmlns:serif="http://www.serif.com/" style="fill-rule:evenodd;clip-rule:evenodd;stroke-linejoin:round;stroke-miterlimit:2;">
    <g transform="matrix(1,0,0,1,-189.884,-103.131)">
        <g transform="matrix(0.936609,0,0,0.936609,27.6939,33.731)">
            <path d="M398.675,74.604C522.856,74.604 623.675,175.423 623.675,299.604C623.675,423.785 522.856,524.604 398.675,524.604C274.494,524.604 173.675,423.785 173.675,299.604C173.675,175.423 274.494,74.604 398.675,74.604Z" style="fill:none;fill-rule:nonzero;stroke:black;stroke-width:1.01px;"/>
        </g>
        <g>
            <g>
                <clipPath id="_clip1">
                    <path d="M401.096,103.606C517.406,103.606 611.834,198.034 611.834,314.343C611.834,430.652 517.406,525.08 401.096,525.08C284.787,525.08 190.359,430.652 190.359,314.343C190.359,198.034 284.787,103.606 401.096,103.606Z" clip-rule="nonzero"/>
                </clipPath>
                <g clip-path="url(#_clip1)">
                    <g transform="matrix(0.936609,0,0,0.936609,27.6939,33.731)">
                        <path d="M398.675,74.604C522.856,74.604 623.675,175.423 623.675,299.604C623.675,423.785 522.856,524.604 398.675,524.604C274.494,524.604 173.675,423.785 173.675,299.604C173.675,175.423 274.494,74.604 398.675,74.604Z" style="fill:rgb(167,167,167);fill-rule:nonzero;"/>
                    </g>
                    <g id="karla">
                        <g id="body">
                            <g>
                                <rect x="382.995" y="391.712" width="36.203" height="64.403" style="fill:white;"/>
                                <rect x="382.995" y="391.712" width="36.203" height="64.403" style="fill:none;stroke:black;stroke-width:2.74px;stroke-linecap:round;"/>
                            </g>
                            <g>
                                <path d="M419.198,427.429C420.151,427.696 506.525,445.463 507.169,445.982C507.813,446.501 529.49,481.899 529.49,481.899C529.49,481.899 479.637,525.767 399.319,524.02C316.034,522.209 268.171,481.973 268.171,481.973L292.437,445.134L382.995,427.429" style="fill:white;"/>
                                <path d="M506.441,447.024C506.022,446.917 505.289,446.747 504.285,446.523C500.054,445.578 491.117,443.695 480.553,441.498C454.811,436.145 419.436,428.919 418.827,428.75C418.098,428.545 417.672,427.788 417.877,427.059C418.081,426.329 418.839,425.903 419.568,426.108C420.247,426.299 464.433,435.487 489.865,440.91C497.186,442.471 502.957,443.72 505.7,444.356C506.513,444.545 507.071,444.683 507.337,444.76C507.693,444.864 507.875,444.998 507.928,445.04C507.998,445.097 508.277,445.414 508.666,446.002C509.401,447.114 510.884,449.471 512.747,452.468C519.267,462.955 530.461,481.304 530.461,481.304C530.751,481.776 530.658,482.388 530.243,482.754C530.243,482.754 507.645,502.597 468.366,515.1C449.121,521.227 425.866,525.598 399.298,524.993C372.455,524.412 349.282,519.841 330.179,513.932C289.7,501.411 267.481,482.794 267.481,482.794C267.064,482.443 266.976,481.837 267.275,481.383L291.472,444.498C291.643,444.239 291.911,444.06 292.215,444L382.732,426.082C383.475,425.937 384.197,426.422 384.342,427.165C384.487,427.909 384.002,428.63 383.259,428.775L293.133,446.176L269.603,481.751C273.737,485.023 294.453,502.825 330.179,513.932C349.125,519.822 372.712,525.976 399.346,526.557C425.662,527.103 450.085,520.968 469.133,514.854C503.808,503.725 525.362,488.047 529.49,484.621C527.752,481.796 520.409,469.315 515.19,460.908C511.774,455.406 508.634,450.382 507.109,448.034C506.824,447.593 506.598,447.252 506.441,447.024Z"/>
                            </g>
                            <g>
                                <path d="M364.206,431.481C364.206,431.481 371.945,446.978 400.847,446.432C429.75,445.887 438.054,432.037 438.054,432.037L463.651,437.029C463.651,437.029 455.106,472.067 458.12,483.602C460.952,494.442 482.497,508.623 482.497,508.623C478.417,510.317 461.56,516.42 444.844,519.768C429.559,522.83 420.88,524.503 400,524.034C378.777,523.557 362.22,520.73 349.268,517.762C333.703,514.195 315.92,507.92 315.92,507.92C315.92,507.92 336.067,495.087 339.77,483.602C343.472,472.118 337.832,436.76 337.832,436.76L364.206,431.481Z" style="fill:rgb(13,0,0);"/>
                                <path d="M365.433,430.868C365.156,430.314 364.543,430.014 363.936,430.136L337.578,435.492C336.897,435.628 336.446,436.278 336.555,436.963C336.555,436.963 338.915,451.501 339.628,464.924C340.018,472.246 339.94,479.232 338.659,483.244C337.49,486.897 334.571,490.678 331.217,494.127C324.241,501.301 315.335,507.001 315.335,507.001C314.983,507.225 314.791,507.63 314.838,508.043C314.885,508.457 315.165,508.808 315.557,508.946C315.557,508.946 322.838,511.5 332.169,514.27C337.452,515.838 343.391,517.476 349.04,518.76C356.291,520.411 364.667,522.014 374.351,523.192C382.038,524.128 390.549,524.798 399.978,525.003C409.461,525.214 416.439,524.984 422.658,524.389C430.197,523.667 436.62,522.407 445.036,520.725C451.66,519.404 458.307,517.653 464.18,515.913C473.204,513.239 480.402,510.59 482.887,509.562C483.234,509.418 483.474,509.093 483.509,508.719C483.545,508.344 483.37,507.981 483.056,507.774C483.056,507.774 473.853,501.698 466.753,494.485C463.158,490.832 460.082,486.904 459.155,483.332C458.104,479.284 458.543,472.284 459.498,464.968C461.238,451.647 464.766,437.301 464.766,437.301C464.84,436.996 464.787,436.674 464.617,436.41C464.448,436.145 464.178,435.962 463.87,435.902L438.284,430.86C437.789,430.764 437.286,430.988 437.026,431.42C437.026,431.42 433.814,436.651 424.506,440.651C418.943,443.041 411.246,444.975 400.823,445.15C392.508,445.289 385.987,444.082 380.925,442.297C369.13,438.139 365.433,430.868 365.433,430.868ZM363.523,433.014L339.294,437.789C339.855,441.596 341.524,453.587 342.06,464.802C342.426,472.465 342.244,479.77 340.88,483.96C339.6,487.899 336.481,492.005 332.842,495.713C327.633,501.021 321.39,505.531 318.349,507.61C321.138,508.565 326.487,510.355 332.774,512.247C338.01,513.823 343.897,515.47 349.497,516.764C356.685,518.422 364.988,520.041 374.592,521.23C382.218,522.175 390.665,522.848 400.022,523.066C409.409,523.278 416.318,523.057 422.474,522.466C429.947,521.749 436.312,520.487 444.653,518.812C451.214,517.491 457.798,515.744 463.613,514.007C470.929,511.823 477.03,509.658 480.343,508.385C477.35,506.299 470.705,501.455 465.261,495.958C461.362,492.02 458.099,487.732 457.085,483.872C455.974,479.648 456.347,472.333 457.32,464.687C458.741,453.521 461.399,441.637 462.259,437.93L438.595,433.362C437.341,435.049 433.515,439.421 425.482,442.911C419.706,445.421 411.713,447.487 400.871,447.714C389.842,447.946 381.82,445.872 376.092,443.201C368.437,439.632 364.792,434.966 363.523,433.014Z"/>
                            </g>
                        </g>
                        <g id="right-ear" serif:id="right ear">
                            <path d="M493.37,281.143C500.554,282.683 505.049,290.17 503.402,297.853C501.755,305.535 494.586,310.522 487.403,308.982C480.219,307.443 475.724,299.955 477.371,292.273C479.018,284.59 486.187,279.603 493.37,281.143Z" style="fill:white;"/>
                            <path d="M493.37,281.143C500.554,282.683 505.049,290.17 503.402,297.853C501.755,305.535 494.586,310.522 487.403,308.982C480.219,307.443 475.724,299.955 477.371,292.273C479.018,284.59 486.187,279.603 493.37,281.143Z" style="fill:none;stroke:black;stroke-width:2.74px;stroke-linecap:round;"/>
                        </g>
                        <g id="left-ear" serif:id="left ear">
                            <path d="M306.503,281.143C299.319,282.683 294.824,290.17 296.471,297.853C298.118,305.535 305.287,310.522 312.47,308.982C319.654,307.443 324.149,299.955 322.502,292.273C320.855,284.59 313.686,279.603 306.503,281.143Z" style="fill:white;"/>
                            <path d="M306.503,281.143C299.319,282.683 294.824,290.17 296.471,297.853C298.118,305.535 305.287,310.522 312.47,308.982C319.654,307.443 324.149,299.955 322.502,292.273C320.855,284.59 313.686,279.603 306.503,281.143Z" style="fill:none;stroke:black;stroke-width:2.74px;stroke-linecap:round;"/>
                        </g>
                        <g id="face">
                            <path d="M401.096,158.729C451.657,158.729 492.706,213.816 492.706,281.667C492.706,349.518 451.657,404.605 401.096,404.605C350.536,404.605 309.487,349.518 309.487,281.667C309.487,213.816 350.536,158.729 401.096,158.729Z" style="fill:white;"/>
                            <path d="M401.096,158.729C451.657,158.729 492.706,213.816 492.706,281.667C492.706,349.518 451.657,404.605 401.096,404.605C350.536,404.605 309.487,349.518 309.487,281.667C309.487,213.816 350.536,158.729 401.096,158.729Z" style="fill:none;stroke:black;stroke-width:2.83px;stroke-linecap:round;"/>
                        </g>
                        <g id="hair">
                            <path d="M401.417,149.593C432.752,149.593 466.628,164.64 480.883,187.799C488.128,199.571 491.033,212.539 492.706,226.793C495.071,246.931 494.066,278.772 492.706,289.305C491.936,295.272 489.055,275.633 487.062,265.94C484.94,255.619 482.048,248.147 477.031,237.401C469.019,220.238 455.78,215.217 447.818,218.044C427.603,225.223 417.986,229.372 401.123,229.245C386.589,229.136 370.391,224.49 347.512,217.724C339.505,215.356 330.305,221.789 323.897,238.601C321.129,245.863 316.875,254.465 315.106,261.577C310.272,281.007 310.707,295.442 309.487,287.733C307.799,277.068 306.181,246.355 309.487,226.786C311.811,213.029 315.611,200.452 322.645,189.417C337.526,166.071 369.574,149.593 401.417,149.593Z" style="fill:rgb(234,234,234);"/>
                            <path d="M401.417,149.593C432.752,149.593 466.628,164.64 480.883,187.799C488.128,199.571 491.033,212.539 492.706,226.793C495.071,246.931 494.066,278.772 492.706,289.305C491.936,295.272 489.055,275.633 487.062,265.94C484.94,255.619 482.048,248.147 477.031,237.401C469.019,220.238 455.78,215.217 447.818,218.044C427.603,225.223 417.986,229.372 401.123,229.245C386.589,229.136 370.391,224.49 347.512,217.724C339.505,215.356 330.305,221.789 323.897,238.601C321.129,245.863 316.875,254.465 315.106,261.577C310.272,281.007 310.707,295.442 309.487,287.733C307.799,277.068 306.181,246.355 309.487,226.786C311.811,213.029 315.611,200.452 322.645,189.417C337.526,166.071 369.574,149.593 401.417,149.593Z" style="fill:none;stroke:rgb(194,194,194);stroke-width:2.74px;stroke-linecap:round;"/>
                        </g>
                        <g id="eyebrows">
                            <g>
                                <path d="M422.297,273.816C424.552,272.251 454.386,267.205 454.386,267.205L464.254,265.666L477.185,273.666L463.71,268.695C463.71,268.695 435.905,276.549 426.397,279.497C424.167,280.189 420.299,275.203 422.297,273.816Z"/>
                                <path d="M422.297,273.816C424.552,272.251 454.386,267.205 454.386,267.205L464.254,265.666L477.185,273.666L463.71,268.695C463.71,268.695 435.905,276.549 426.397,279.497C424.167,280.189 420.299,275.203 422.297,273.816Z" style="fill:none;stroke:black;stroke-width:1px;stroke-linecap:round;"/>
                            </g>
                            <g>
                                <path d="M379.271,273.887C377.016,272.322 347.182,267.276 347.182,267.276L337.314,265.737L324.383,273.737L337.858,268.766C337.858,268.766 365.663,276.62 375.171,279.568C377.401,280.26 381.27,275.274 379.271,273.887Z"/>
                                <path d="M379.271,273.887C377.016,272.322 347.182,267.276 347.182,267.276L337.314,265.737L324.383,273.737L337.858,268.766C337.858,268.766 365.663,276.62 375.171,279.568C377.401,280.26 381.27,275.274 379.271,273.887Z" style="fill:none;stroke:black;stroke-width:1px;stroke-linecap:round;"/>
                            </g>
                        </g>
                        <g id="eyes">
                            <g>
                                <path d="M420.331,300.104C420.331,300.104 429.928,290.915 439.477,289.778C449.026,288.641 458.226,289.97 465.585,297.011C466.981,298.347 469.44,295.944 472.906,293.238C475.111,291.516 480.353,286.68 478.525,287.968C476.58,289.339 467.563,293.488 460.918,290.526C443.366,282.703 428.442,289.53 420.331,300.104Z"/>
                                <path d="M420.331,300.104C420.331,300.104 429.928,290.915 439.477,289.778C449.026,288.641 458.226,289.97 465.585,297.011C466.981,298.347 469.44,295.944 472.906,293.238C475.111,291.516 480.353,286.68 478.525,287.968C476.58,289.339 467.563,293.488 460.918,290.526C443.366,282.703 428.442,289.53 420.331,300.104Z" style="fill:none;stroke:black;stroke-width:1px;stroke-linecap:round;"/>
                            </g>
                            <g>
                                <path d="M382.503,299.515C382.503,299.515 372.906,290.326 363.357,289.189C353.808,288.052 344.608,289.381 337.249,296.422C335.852,297.758 333.394,295.355 329.928,292.649C327.723,290.927 322.481,286.091 324.309,287.379C326.254,288.75 335.271,292.899 341.916,289.937C359.468,282.114 374.392,288.941 382.503,299.515Z"/>
                                <path d="M382.503,299.515C382.503,299.515 372.906,290.326 363.357,289.189C353.808,288.052 344.608,289.381 337.249,296.422C335.852,297.758 333.394,295.355 329.928,292.649C327.723,290.927 322.481,286.091 324.309,287.379C326.254,288.75 335.271,292.899 341.916,289.937C359.468,282.114 374.392,288.941 382.503,299.515Z" style="fill:none;stroke:black;stroke-width:1px;stroke-linecap:round;"/>
                            </g>
                            <path d="M444.277,290.648C450.942,290.648 456.353,295.755 456.353,302.045C456.353,308.336 450.942,313.443 444.277,313.443C437.612,313.443 432.201,308.336 432.201,302.045C432.201,295.755 437.612,290.648 444.277,290.648Z"/>
                            <path d="M358.557,290.059C351.892,290.059 346.481,295.166 346.481,301.456C346.481,307.747 351.892,312.854 358.557,312.854C365.222,312.854 370.633,307.747 370.633,301.456C370.633,295.166 365.222,290.059 358.557,290.059Z"/>
                        </g>
                        <g id="noes">
                            <path d="M392.347,332.431C392.347,335.771 396.268,338.482 401.096,338.482C405.925,338.482 409.846,335.771 409.846,332.431C409.846,335.771 405.925,338.482 401.096,338.482C396.268,338.482 392.347,335.771 392.347,332.431Z" style="fill:rgb(247,247,247);"/>
                            <path d="M392.347,332.431C392.347,335.771 396.268,338.482 401.096,338.482C405.925,338.482 409.846,335.771 409.846,332.431C409.846,335.771 405.925,338.482 401.096,338.482C396.268,338.482 392.347,335.771 392.347,332.431Z" style="fill:none;stroke:black;stroke-width:2.13px;stroke-linecap:round;"/>
                        </g>
                        <g id="nose-ring" serif:id="nose ring">
                            <path d="M393.711,335.457C393.711,342.013 397.02,347.336 401.096,347.336C405.173,347.336 408.482,342.013 408.482,335.457C407.251,338.735 404.366,341.396 401.096,341.396C397.827,341.396 394.942,338.735 393.711,335.457Z" style="fill:rgb(147,147,147);"/>
                            <path d="M393.711,335.457C393.711,342.013 397.02,347.336 401.096,347.336C405.173,347.336 408.482,342.013 408.482,335.457C407.251,338.735 404.366,341.396 401.096,341.396C397.827,341.396 394.942,338.735 393.711,335.457Z" style="fill:none;stroke:black;stroke-width:1.22px;stroke-linecap:round;"/>
                        </g>
                        <g id="mouth">
                            <path d="M382.881,362.282C382.881,363.536 391.043,373.028 401.096,373.028C411.15,373.028 419.312,363.536 419.312,362.282C419.312,361.028 407.168,365.506 401.096,365.506C395.025,365.506 382.881,361.028 382.881,362.282Z"/>
                            <path d="M382.881,362.282C382.881,363.536 391.043,373.028 401.096,373.028C411.15,373.028 419.312,363.536 419.312,362.282C419.312,361.028 407.168,365.506 401.096,365.506C395.025,365.506 382.881,361.028 382.881,362.282Z" style="fill:none;stroke:black;stroke-width:2.13px;stroke-linecap:round;"/>
                        </g>
                    </g>
                </g>
            </g>
        </g>
    </g>
</svg>
